<?xml version="1.0" encoding="UTF-8" standalone="no"?>
<svg
   xmlns:dc="http://purl.org/dc/elements/1.1/"
   xmlns:cc="http://creativecommons.org/ns#"
   xmlns:rdf="http://www.w3.org/1999/02/22-rdf-syntax-ns#"
   xmlns:svg="http://www.w3.org/2000/svg"
   xmlns="http://www.w3.org/2000/svg"
   xmlns:sodipodi="http://sodipodi.sourceforge.net/DTD/sodipodi-0.dtd"
   xmlns:inkscape="http://www.inkscape.org/namespaces/inkscape"
   width="210mm"
   height="297mm"
   version="1.1"
   viewBox="0 0 744.09448819 1052.3622047"
   id="svg20"
   sodipodi:docname="geo_logo.svg"
   inkscape:version="0.92.4 (5da689c313, 2019-01-14)">
  <metadata
     id="metadata24">
    <rdf:RDF>
      <cc:Work
         rdf:about="">
        <dc:format>image/svg+xml</dc:format>
        <dc:type
           rdf:resource="http://purl.org/dc/dcmitype/StillImage" />
      </cc:Work>
    </rdf:RDF>
  </metadata>
  <sodipodi:namedview
     pagecolor="#ffffff"
     bordercolor="#666666"
     borderopacity="1"
     objecttolerance="10"
     gridtolerance="10"
     guidetolerance="10"
     inkscape:pageopacity="0"
     inkscape:pageshadow="2"
     inkscape:window-width="1366"
     inkscape:window-height="715"
     id="namedview22"
     showgrid="false"
     inkscape:zoom="0.2102413"
     inkscape:cx="396.85039"
     inkscape:cy="561.25984"
     inkscape:window-x="-8"
     inkscape:window-y="-8"
     inkscape:window-maximized="1"
     inkscape:current-layer="svg20" />
  <defs
     id="defs12">
    <radialGradient
       id="d"
       cx="472.92"
       cy="785.46"
       r="127.64"
       gradientTransform="matrix(3.4026 1.2105e-5 0 2.6338 -1134.9 -1282.1)"
       gradientUnits="userSpaceOnUse">
      <stop
         stop-color="#fff"
         offset="0"
         id="stop2" />
      <stop
         stop-color="#c4d7f0"
         offset="1"
         id="stop4" />
    </radialGradient>
    <radialGradient
       id="c"
       cx="430.67"
       cy="815.26"
       r="115.77"
       gradientTransform="matrix(-5.4153e-8 -.93779 1.0118 0 -339.13 1187.7)"
       gradientUnits="userSpaceOnUse">
      <stop
         stop-color="#aec8eb"
         offset="0"
         id="stop7" />
      <stop
         stop-color="#3465a4"
         offset="1"
         id="stop9" />
    </radialGradient>
    <linearGradient
       gradientUnits="userSpaceOnUse"
       y2="662.26"
       x2="1419.34"
       y1="1712.04"
       x1="191.59"
       id="a"
       gradientTransform="matrix(0.09680673,0,0,0.09680673,387.36394,659.89562)">
      <stop
         id="stop26"
         stop-color="#beea2e" />
      <stop
         id="stop28"
         stop-color="#52ba00"
         offset="1" />
    </linearGradient>
  </defs>
  <g
     transform="matrix(2.8318 0 0 2.8318 -873.37 -1817.8)"
     id="g18">
    <circle
       cx="438.57"
       cy="828.08"
       r="127.12"
       fill="url(#d)"
       id="circle14" />
    <path
       d="m445.81 701.32c-0.12392 0.26518-0.27648 0.62724-0.38281 0.83594-0.0865 0.16986-0.14352 0.3442-0.1836 0.52148-1.1651 0.89044-0.82737 1.9993 0.8086 2.6426 0.31915 0.46688 0.72457 0.97659 1.2324 1.5469 0.5557 0.62401 1.1902 1.1869 1.8379 1.6602l6e-3 6e-3c0.36682 0.43158 0.943 0.76765 1.666 0.98047 0.58663 0.26354 1.1404 0.4261 1.6035 0.43359 2.2251 0.036 2.2872-0.0918 0.82813-1.7109-1.7992-1.9965-2.5513-4.1194-2.2774-6.6582a127.12 127.12 0 0 0 -5.1387 -0.25781zm25.66 4.125c-0.0628 0.0931-0.12894 0.22395-0.18946 0.29687-1.1984 1.444-1.9004 9.2442-0.83203 9.2442 0.3101 0 1.137 0.91871 1.8379 2.041 2.3287 3.7289 0.19062 3.9342-4.4082 0.42383-2.4966-1.9057-5.3493-3.4648-6.3398-3.4648-0.99053 0-2.3687-0.68514-3.0645-1.5234-1.0016-1.2069-1.5663-1.4504-1.6797-1.1016-8e-3 6e-3 -0.0176 8e-3 -0.0254 0.0156-0.26213 0.26213-0.17893 0.95638 0.1836 1.543 0.42729 0.69134 0.76781 1.0049 0.97265 1.0176 0.1341 0.19097 0.25369 0.37673 0.41211 0.57812 1.7115 2.1758 1.863 2.9676 0.87305 4.5527-0.48549 0.7774-1.0073 1.3046-1.457 1.6016-0.11219 0.0692-0.22062 0.13285-0.31641 0.16992-0.0133 6e-3 -0.026 0.0106-0.0391 0.0156-0.36529 0.12775-0.60692 7e-3 -0.74805-0.35743-0.0215-0.23929 0.0363-0.57185 0.20508-1.0117 0.63665-1.6591-0.4335-1.9979-1.9121-0.60547-0.33616 0.31657-1.2574 0.718-2.334 1.0684-0.1046 0.0103-0.2179 0.0371-0.31641 0.0371-0.65078 0-1.2169 0.1903-1.5332 0.4707-5e-3 1e-3 -0.0104 3e-3 -0.0156 4e-3 -1.5016 0.3164-2.2895 0.41602-2.6367 0.2129-0.10024-0.15018-0.17458-0.31592-0.22071-0.49219 9e-3 -0.22176 0.0738-0.50081 0.18945-0.86524 0.3096-0.97529 0.38999-1.3648 0.14454-1.2266-0.013-0.20966-0.30155 0.0904-0.97461 0.89649-0.51509 0.61689-1.2161 1.1512-1.7734 1.3808-0.18802 0.0775-0.36178 0.11914-0.50391 0.11915-0.0956 0-0.20402 0.0164-0.32422 0.0469-0.60102 0.15246-1.4852 0.66466-2.3965 1.3242-0.72941 0.52795-1.4757 1.1502-2.1094 1.7578-0.95019 0.91085-1.6445 1.7881-1.6445 2.2656 0 0.18284-0.0577 0.3424-0.16015 0.47851-0.20503 0.27224-0.59097 0.45029-1.0547 0.53711-0.69557 0.13023-1.5674 0.0528-2.2773-0.22851-0.35498-0.14066-0.66954-0.33195-0.90039-0.57422-0.077-0.0808-0.14433-0.16583-0.20118-0.25782v-2e-3c-0.0486-0.0787-0.087-0.16309-0.11328-0.25195v-2e-3c-0.0263-0.0895-0.0402-0.18257-0.0449-0.27929-0.0235-0.4836 0.21596-1.037 0.65234-1.4707 0.0873-0.0867 0.18269-0.16863 0.28516-0.24414 0.11219-0.0827 0.21259-0.17031 0.30664-0.25976 0.0935-0.0888 0.1799-0.17955 0.25586-0.27344v-2e-3c0.15237-0.18854 0.26948-0.38441 0.35352-0.58399 0.1681-0.3991 0.20211-0.80834 0.11523-1.1758-0.0652-0.27557-0.19773-0.5265-0.39453-0.73437l-2e-3 -2e-3c-0.0654-0.0689-0.13765-0.13306-0.2168-0.1914h-2e-3c-0.0792-0.0583-0.16332-0.11209-0.25586-0.15821h-2e-3c-0.0926-0.0461-0.19128-0.0848-0.29687-0.11718h-2e-3c-0.10569-0.0323-0.21763-0.0592-0.33594-0.0762h-2e-3c-0.11903-0.017-0.24553-0.0254-0.37695-0.0254-0.144 0-0.27411 0.018-0.39258 0.0527-0.79465 0.23322-1.0299 1.2868-0.88476 3.6973 0.16129 2.679 0.1895 4.2192-0.0195 5.0312-0.22617 0.45051-0.62223 0.53601-1.2793 0.42579-0.30842-0.0517-0.63467-0.041-0.9668 0.0215-2.0182-0.0472-4.5656 2.5685-4.3066 4.5801 9e-3 0.18749 0.0342 0.37048 0.0996 0.54101 0.0311 0.0811 0.0464 0.15491 0.0645 0.23047 0.0102 0.0515 0.0283 0.1096 0.0352 0.15821 0.0797 0.61211-0.28656 1.0158-0.86523 1.1934-0.64087 0.0232-1.6002-0.28143-2.8809-0.9668-0.44968-0.24067-0.79248-0.38967-1.0664-0.46484-0.64328-0.57087-0.86719-0.49899-0.86719 0.30078 0 0.0707 0.0233 0.13179 0.0332 0.19922-0.0212 0.13274-0.0332 0.28253-0.0332 0.46484 0 0.84435 0.45 1.5352 1 1.5352 0.48775 0 0.87653 0.36051 0.96289 0.82421-0.1173 0.54503-0.52249 0.97777-1.0391 1.1211-0.1252 0.0247-0.24855 0.0517-0.38476 0.0527-0.077-9.5e-4 -0.15696-0.0139-0.23633-0.0273-0.0392-7e-3 -0.0773-8e-3 -0.11719-0.0176-0.0595-0.0143-0.12122-0.0399-0.18164-0.0606-0.0794-0.0283-0.15713-0.0522-0.23828-0.0918-1.8429-0.89844-4.0597-4.5931-3.4434-6.1992 0.29838-0.77757-0.32772-2.2002-1.3906-3.1621-0.19421-0.17576-0.3403-0.33381-0.5039-0.49805-0.14036-0.16024-0.28413-0.31199-0.4336-0.44726l-2e-3 -2e-3c-1.5883-1.7842-1.1071-2.6129 1.2578-1.0898 1.2375 0.79699 3.8542 1.7419 5.8145 2.0996 3.4463 0.6289 5.7004-0.63066 5.7148-2.9375 0.12813-0.26585 0.2207-0.50844 0.2207-0.67578 0-0.29815-0.30358-0.80305-0.80273-1.4238-1.1985-1.9666-4.7038-4.97-7.5723-6.6465-4e-3 -2e-3 -8e-3 -4e-3 -0.0117-6e-3 -0.53999-0.3397-1.0174-0.59652-1.377-0.7168-0.53204-0.23981-1.0187-0.41019-1.4238-0.47852-1.272-0.21457-2.22-0.8354-2.1055-1.3789 0.1146-0.54351-0.91601-0.98828-2.291-0.98828-0.70241 0-1.2996-0.0625-1.7988-0.16407-0.0916-0.0198-0.18186-0.0403-0.26562-0.0625-0.1398-0.036-0.26644-0.0758-0.38477-0.11914-0.0879-0.0325-0.17274-0.0658-0.24805-0.10156-0.10033-0.0477-0.18574-0.0987-0.26367-0.15234-0.0746-0.0512-0.1522-0.10262-0.20508-0.15821-0.017-0.0179-0.038-0.0344-0.0527-0.0527-0.0144-0.0179-0.0249-0.0365-0.0371-0.0547-0.0228-0.0339-0.0432-0.0683-0.0586-0.10352-0.011-0.0258-0.0185-0.0517-0.0254-0.0781-7e-3 -0.0258-0.0125-0.0518-0.0156-0.0781-4e-3 -0.0376-4e-3 -0.0766 0-0.11524 1e-3 -0.0149 3e-3 -0.0299 6e-3 -0.0449 9e-3 -0.0474 0.0236-0.0939 0.0449-0.14258 2e-3 -5e-3 4e-3 -0.0106 6e-3 -0.0156 0.0521-0.11237 0.14092-0.22834 0.25977-0.34571 0.0596-0.0587 0.14918-0.11849 0.22656-0.17773 0.0911-0.0709 0.16549-0.14135 0.28125-0.21289 1.1375-0.70299 0.59131-1.5714-0.50391-1.8398-0.23441-0.18246-0.45832-0.36074-0.78711-0.57617-0.74336-0.48706-1.3218-0.84859-1.793-1.1055 0.0668-0.3564-0.0149-0.42202-0.30274-0.15039-1.2641-0.61585-1.5026-0.18737-1.5293 1.3516-3e-3 0.17544-0.0125 0.25691-0.0176 0.39453-0.19958 0.19985-0.37079 0.3462-0.51758 0.44531-0.14143-0.2109-0.31399-0.49757-0.54492-0.89453-0.7578-1.3026-1.2623-1.5161-2.1973-0.83594-0.33149 0.17612-0.90849 0.52658-1.4727 0.87305-0.12689 6e-3 -0.21875-0.0254-0.21875-0.14844 0-0.36377-0.96905 0.2394-2.1523 1.3418-1.1833 1.1024-2.5333 1.7689-3 1.4805-0.46671-0.28844-0.85528 0.0652-0.86328 0.78516-0.0111 0.94951-0.27886 0.89663-0.97266-0.1914-0.80445-1.2616-1.2372-1.1026-2.7266 1-0.15017 0.21199-0.2857 0.42946-0.42578 0.64648-0.01 0.0135-0.0175 0.0293-0.0274 0.043-0.75474 1.1763-1.3339 2.3509-1.3476 2.8106-0.0164 0.54999-0.755 0.87966-1.6426 0.73242-0.36716-0.0609-0.74906 8e-5 -1.0938 0.14453-0.37086 0.0682-0.61959 0.24504-0.71094 0.48242-0.16067 0.1678-0.29147 0.35969-0.37304 0.57227-0.37846 0.98621-0.0876 1.284 0.88672 0.91015 0.17356-0.0666 0.33564-0.0953 0.49023-0.11133 0.0743 0.0362 0.12591 0.0776 0.20898 0.11133 0.94068 0.38169 0.87881 0.7681-0.25 1.5664-0.0635 0.0449-0.10436 0.0834-0.16211 0.12695-0.47064 0.0883-0.83789 0.52073-0.83789 1.0606 0 0.6026-0.83567 2.2901-1.8555 3.75-1.0198 1.4599-2.1466 3.8645-2.5039 5.3438s-3.1217 5.1246-6.1445 8.0996c-1.4412 1.4184-2.4756 2.4867-3.2656 3.4102l-2.4473 2.4024 0.25976 2.4199c-0.0299 0.42616-0.043 0.88015-0.043 1.3926 0 3.2065 0.68401 5.8822 1.7207 7.2012 0.972 1.5706 2.4517 1.0577 4.8906-1.2227 0.014-0.013 0.0291-0.0241 0.043-0.0371l2.2852-2.1465 1.0293 2.8965c0.56706 1.5926 1.5353 3.7626 2.1504 4.8223 0.0465 0.0802 0.0781 0.14914 0.11915 0.22461 0.53564 1.6809 0.28329 2.2236-0.67969 2.9277-0.19094 0.13962-0.36962 0.29424-0.53907 0.44922-0.01 9e-3 -0.0217 0.0165-0.0312 0.0254-0.0808 0.0749-0.14513 0.14891-0.21876 0.22461-0.45148 0.45596-0.76953 0.89844-0.76953 1.1484 0 0.01 9e-3 0.016 0.01 0.0254-5.1e-4 8e-3 -0.01 0.0213-0.01 0.0293 0 0.19014 0.14235 0.24345 0.3711 0.1875 1.0252 0.16381 4.027-0.79323 4.6289-1.6543 0.0885-0.12666 0.24852-0.26656 0.4336-0.40625 0.0722-0.0362 0.13525-0.0594 0.20898-0.0977 0.28698-0.14888 0.54059-0.30817 0.7793-0.47265 0.15297-0.0674 0.30771-0.13305 0.45898-0.18164 0.75984-0.24409 1.5012-1.9558 1.6465-3.8027 0.12712-1.616 0.78696-3.2852 1.541-4.0078 0.10732-0.10284 0.2163-0.18639 0.32617-0.24805 9e-3 -5e-3 0.0166-0.0106 0.0254-0.0156 1.0525-0.60042 1.5466-1.5721 1.5039-2.582 0.20735-1.1425-9e-3 -2.2012-0.8164-2.2012-0.0982 0-0.1772-0.0298-0.26563-0.0449-0.15343-0.15105-0.30405-0.30331-0.49023-0.43945-0.26158-0.19127-0.47466-0.41514-0.64649-0.66602-0.50208-1.6238 0.25164-4.6819 1.8066-7.3086 0.44533-0.62185 0.93189-1.255 1.502-1.9043 0.29875-0.34026 0.57213-0.69061 0.8457-1.0391l2e-3 -2e-3c1.1759-1.0477 2.1524-2.6227 2.1699-3.5 0.0222-1.1125 0.60401-2.3537 1.4062-3.334 0.0386-0.0435 0.0737-0.0906 0.11329-0.13281 0.0625-0.0725 0.13058-0.13402 0.19531-0.20312 0.89865-0.87625 1.9963-1.4291 2.916-1.252 1.0127 0.19503 1.6334 0.63716 1.8789 1.3008v2e-3c0.25408 1.5681-1.1168 4.2672-4 7.5234-0.76467 0.8636-1.2501 1.6111-1.5449 2.4707-0.42997 0.73796-0.64956 1.2822-0.53907 1.4609 0.063 0.10188 0.13 0.30153 0.19727 0.57617-0.0274 0.76467 0.0104 1.6443 0.11133 2.7422 0.3918 4.264 0.68755 4.75 2.9004 4.75 1.3558 0 3.3928-0.49543 4.5254-1.1016 0.12516-0.067 0.24306-0.1184 0.36328-0.17383 0.55236-0.16227 1.0266-0.28924 1.4453-0.38867 0.80786-0.0461 1.633 0.20175 2.7012 0.77344 0.22694 0.12146 0.33523 0.19473 0.51757 0.29687 0.0559 0.0383 0.10958 0.0742 0.16993 0.0977 1.3861 0.79654 1.3658 1.0628 0.0351 1.5957-0.0628 0.024-0.12944 0.0471-0.19531 0.0703-1.0401 0.3836-3.2095 0.72214-4.9199 0.75976-2.001 0.0441-3.2113 0.39978-3.6836 1.1055-0.68647 0.57311-0.85138 1.2377-0.0664 1.627 0.13213 0.38163 0.33987 0.80437 0.63281 1.2734 1.0125 1.6216 1.0114 2.2623-8e-3 3.2812-0.43847 0.43847-0.76628 0.66821-1.0606 0.70703-0.23218-0.0597-0.45883-0.14783-0.66602-0.27929-0.15577-0.15593-0.31842-0.36974-0.5-0.65235-0.84883-1.3215-1.0692-1.3209-1.9414 8e-3 -0.54158 0.825-0.992 2.5455-1 3.8223-0.0117 1.7719-1.0008 3.5432-2.0391 4.3418-0.44588 0.21489-0.93503 0.34101-1.4531 0.35547-0.18081-0.0842-0.34546-0.22956-0.48242-0.45118-0.60759-0.98311-1.4861-0.88956-4.041 0.43165-2.4569 1.2705-3.449 1.3913-4.0059 0.49023-0.56088-0.90752-1.2551-0.92132-2.8672-0.0586-0.99045 0.53007-1.8562 0.72044-2.1367 0.50586-0.0154-0.0152-0.0315-0.0289-0.0469-0.0449-0.0238-0.0314-0.0449-0.0645-0.0508-0.10742-0.0494-0.3598-0.19347-2.0003-0.32617-3.5703 0.0334-0.36522 0.0149-0.84628-0.0645-1.4473-0.12882-0.97747-0.19517-1.5454-0.2793-2.2383-0.0345-0.34176-0.0977-1.1311-0.11523-1.248-0.028-0.1865-0.21665-0.29105-0.48829-0.32226-0.0162-2e-3 -0.0242-0.0104-0.041-0.0117-0.28837-0.0258-0.67738 0.0379-1.0977 0.19922-2e-3 7.8e-4 -4e-3 9.5e-4 -6e-3 2e-3 -6e-3 2e-3 -0.0114 3e-3 -0.0176 6e-3 -1.0847 0.41624-1.317 1.4086-0.99414 4.0352 0.0444 0.45751 0.071 0.85668 0.14649 1.4258 0.11173 0.8423 0.19068 1.4952 0.25 2.0723 0.0509 1.6289-0.49778 1.9342-2.2539 2.375-0.57293 0.14378-1.0978 0.37903-1.5293 0.65624-0.69665 0.24315-1.0762 0.68205-1.0762 1.2813 0 0.825-0.37088 1.5-0.82421 1.5-0.45335 0-2.5908 1.7917-4.75 3.9824-2.1592 2.1908-4.4883 3.991-5.1758 4s-1.25 0.52061-1.25 1.1348c0 0.62408-0.8827 0.88593-2 0.59375-2.5872-0.67656-3.6332 0.95332-1.123 1.75 0.75376 0.23924 1.4782 0.88765 2.0898 1.752 0.12232 0.17286 0.24082 0.35438 0.35352 0.54296 1.1269 1.8859 1.7395 4.4805 1.1816 6.2383-0.60387 1.9026-1.3137 2.113-6.3418 1.877l-5.6602-0.26563-0.50781 4.9805c-0.0836 0.82048-0.14964 1.5673-0.19726 2.2461-0.0267 0.37968-0.034 0.68951-0.0488 1.0273-0.0119 0.2722-0.0332 0.57784-0.0371 0.82422-2e-3 0.15119 9e-3 0.26258 0.01 0.4043 2e-3 0.37182 4e-3 0.74663 0.0274 1.0566 6e-3 0.0747 0.0202 0.12601 0.0273 0.19726 0.19358 1.9636 0.87701 2.6582 2.2168 2.6582 0.66182 0 1.2844 0.1884 1.7051 0.45507 0.19045 0.1511 0.30468 0.32802 0.30468 0.51953 0 0.73763 1.7532 0.6927 3.7051 0.22461 0.10148-0.0181 0.19175-0.0221 0.29492-0.043 1.0886-0.22006 1.9353-0.52719 2.6543-0.98437 0.62217-0.29601 1.1939-0.61636 1.5957-0.96484 0.9625-0.83475 1.75-2.3142 1.75-3.2891 0-0.13081 0.0222-0.27655 0.0606-0.42968 0.91046-1.4808 2.0263-2.9154 2.8125-3.5625 0.63575-0.52327 1.2425-1.3028 1.6894-2.0742 2e-3 -4e-3 5e-3 -8e-3 8e-3 -0.0117 3e-3 -5e-3 5e-3 -0.0103 8e-3 -0.0156 0.28403-0.4949 0.51575-0.98717 0.59961-1.3984 0.14516-0.71185 0.41316-1.1661 0.89648-1.4219 0.6739-0.2022 1.7048-0.20432 3.2617-0.041 1.0097 0.1059 2.6308-0.52787 3.6035-1.4082 1.646-1.4896 2.1335-1.2531 7.0352 3.4219 0.98201 0.9366 1.823 1.6883 2.5996 2.3496 2.2604 1.9852 3.783 2.8169 4.8184 2.5644 6e-3 -1e-3 0.0115-4e-3 0.0176-6e-3 0.10291-0.0264 0.20281-0.0603 0.29687-0.10742 0.043-0.0211 0.0819-0.0526 0.12305-0.0781 0.0542-0.034 0.11081-0.0622 0.16211-0.10351 0.0896-0.0718 0.17465-0.15554 0.25586-0.25l8e-3 -8e-3c0.0855-0.10043 0.16683-0.21281 0.24414-0.33789 0.33992-0.55 0.16342-1-0.39257-1-1.1477 0-5.5963-4.4758-7.3516-7.0586-0.4235-0.65411-0.72575-1.2227-0.74609-1.5606 0.0239-0.64276 0.50951-1.3089 1.125-1.5703 0.92384-0.0656 2.2913 0.68805 3.6523 2.1524 0.12293 0.26453 0.21289 0.52903 0.21289 0.78125 0 0.48801 1.838 1.9221 4.0859 3.1855 1.2623 0.70943 2.1591 1.3312 2.7617 1.9141 0.36804 0.44534 0.67061 0.9291 0.88281 1.4082 0.0449 0.2375 0.0503 0.47395-0.0117 0.71094-0.24988 0.95555 0.37589 2.8169 1.3906 4.1367 1.0148 1.3198 1.855 2.9629 1.8672 3.6504 0.0168 0.94655 0.48884 1.3055 1.1602 1.1406 0.0698 0.0653 0.12906 0.10937 0.17383 0.10938 0.0257 0 0.0486-0.0706 0.0684-0.17188 0.48829-0.20035 1.0586-0.65109 1.6367-1.3477 1.0328-1.2444 0.92646-1.8872-0.58789-3.5605-0.38922-0.43009-0.68263-0.77675-0.89063-1.0723 0.1959-1.1971 0.66135-1.9417 1.5098-2.3613 1.9473-0.61271 4.4459-0.0584 4.5781 1.2637 0.0687 0.6875 0.21535 1.3625 0.32618 1.5 0.0759 0.0942 0.21719 0.62245 0.36132 1.248 0.11124 0.76442 0.26026 1.4251 0.47852 1.9727 9.5e-4 2e-3 9.5e-4 5e-3 2e-3 8e-3 0.50625 1.4375 1.4988 2.1913 3.5234 2.5566 0.24102 0.0457 0.49606 0.0855 0.76562 0.11914 0.14378 0.0171 0.28457 0.0365 0.4375 0.0508 0.45255 0.0441 0.95251 0.0738 1.4844 0.0937 0.73562 0.0272 1.5384 0.0402 2.4512 0.0332 0.18312-1e-3 0.25094 3e-3 0.42383 2e-3 3.1672-0.0111 4.9951 0.1502 5.7598 0.94336 0.0964 0.3765 0.039 0.89224-0.0566 1.6133-0.19033 1.4351-0.83815 3.8469-1.4394 5.3594-0.82051 2.0639-1.5077 2.638-4.123 2.8359-0.0463 4e-3 -0.10681 5e-3 -0.15429 8e-3 -0.33065 0.0201-0.66878 0.0374-1.0644 0.0508-1.6763 0.0566-3.1541 0.0696-4.4942 0.0449-3.8867-0.10636-6.3233-0.66416-8.6308-1.8574-0.6289-0.32522-1.2196-0.54313-1.7813-0.70508-1.3138-0.65473-2.1717-0.69708-2.8418-0.0195-0.66268 0.31411-1.0527 0.91924-1.0527 1.8027 0 0.0398-0.0118 0.0808-0.0137 0.12109-0.32229 0.83764-0.74781 1.5441-1.1426 1.9902h-2e-3c-1.1272 0.1744-4.3152-0.94788-6.4336-2.0996-0.96243-0.58713-1.7356-1.1419-1.9473-1.4844-0.21921-0.35471-0.9311-0.65556-1.7734-0.81446-0.0692-0.0138-0.13052-0.0335-0.20117-0.0449-0.099-0.0152-0.20324-0.0145-0.30469-0.0254-0.20576-0.0227-0.41161-0.0527-0.61914-0.0527-0.51033 0-0.97088-0.0568-1.3887-0.16016-0.077-0.0187-0.15327-0.038-0.22656-0.0605-0.26193-0.0799-0.50502-0.17973-0.72656-0.30273-1.1425-0.69386-1.6506-2.1437-1.7168-4.5508 6e-3 -0.0598 7.4e-4 -0.11106 8e-3 -0.17188 0.17093-1.5101 0.0122-2.9103-0.35156-3.1133-0.89405-0.49876-6.3444 0.10543-11.004 0.96484-2.8838 0.39978-5.5454 1.0732-6.5098 1.7051-1.0376 0.67988-2.5707 1.0682-3.959 1.0527-0.42433-0.0399-0.86079-0.11786-1.3184-0.24024-2.503-0.6694-3.3539-0.26204-6.6738 3.1934-2.3242 2.419-3.5798 4.5463-3.2266 5.4668 0.34697 0.9042-0.34618 2.4109-1.3359 3.5781-0.79106 0.875-1.7304 1.5773-2.4609 1.627-0.031 2e-3 -0.0633 0.0117-0.0937 0.0117-0.0333 0-0.0842 0.0332-0.125 0.0469-0.0513 0.0172-0.0968 0.0226-0.1582 0.0586-0.0127 8e-3 -0.0298 0.0226-0.043 0.0312-0.78881 0.49464-2.3043 2.3742-3.6758 4.6133-0.65817 1.0745-1.1612 1.9753-1.5547 2.8203-1.473 2.8166-1.6676 4.399-1.3027 7.6328 0.11115 0.98522 0.14756 1.9955 0.14649 2.9531-0.0485 1.4903-0.18782 2.7522-0.38477 3.5137-4e-3 9e-3 -6e-3 0.0243-0.01 0.0332-0.0719 0.16581-0.11324 0.32534-0.17188 0.48828-0.0556 0.11055-0.11261 0.19263-0.17383 0.23047-0.84139 0.52001-0.7719 1.7654-0.0234 3.2773 0.40138 1.3653 1.3837 2.6805 2.9844 4.0274 0.53054 0.44642 1.002 0.92315 1.4316 1.3945 0.86856 1.0291 1.4824 1.9705 1.4824 2.3887 0 0.1265 0.0905 0.30487 0.22657 0.50781 0.52788 0.85096 1.971 2.1706 3.6758 3.2988 3.6046 2.3854 5.3312 2.6828 16.199 0.94727 0.0961-0.0152 0.22855-0.0372 0.32617-0.0527 1.4852-0.23656 3.1056-0.50291 4.9609-0.8125 0.35777-0.0597 0.68448-0.10759 0.99023-0.14648 2.0303-0.23808 2.8064 0.0712 3.2168 1.1406 0.36153 0.94215 1.7656 1.6074 3.3887 1.6074 0.0747 0 0.14195 6e-3 0.21484 8e-3 0.0329 1e-3 0.0669 8e-3 0.0996 8e-3 0.22753 2e-3 0.4088 0.0235 0.61719 0.0332 2.792 0.27066 3.9719 1.823 3.5781 4.7285-0.067 0.34478-0.12913 0.68269-0.22851 1.0742-0.13291 0.52362-0.2376 0.97068-0.32422 1.3828-0.57172 2.3982-0.2333 3.2607 1.7227 5.4688 1.9409 2.1911 3.3566 4.7962 4.1855 7.4375 0.99255 3.8306 1.0207 7.8756-0.31836 10.443-0.89536 1.7169-1.3503 2.9537-1.3945 4.2344-0.19619 2.0171 0.37801 3.97 1.752 6.375 0.705 1.234 1.4446 3.1034 1.9746 4.8438 0.24085 0.84374 0.44978 1.6493 0.56835 2.3066 0.38135 2.114 2.0154 6.2876 3.6309 9.2734 0.0716 0.13234 0.13278 0.26526 0.20313 0.39844 1.514 2.8718 2.4901 5.5717 2.1699 6.0898-0.33393 0.54031-0.0809 1.6189 0.56445 2.3965 0.0963 0.11608 0.2175 0.2209 0.34961 0.32031 0.0817 0.1988 0.17096 0.36627 0.26758 0.46289 0.28984 0.28985 1.4022 0.38667 2.6191 0.27344 0.20031-9e-3 0.40026-0.0275 0.59961-0.0586 7e-3 -1e-3 0.0238-5e-3 0.0312-6e-3 0.0406-6e-3 0.135-0.0208 0.17774-0.0273 1.4818-0.23062 4.1797-0.65159 6.1602-0.96094 0.76803-0.11997 1.6331-0.47282 2.5371-0.96875 4.8322-2.4477 10.258-8.6656 10.258-12.461 0-1.1029 0.93117-2.5036 2.0703-3.1133 0.64693-0.34623 1.0908-0.72497 1.3848-1.2363 0.33003-0.37314 0.46604-0.90791 0.44922-1.7754 0.0315-0.54644 0.015-1.1889-0.041-1.9648-0.18922-2.6204 0.46598-4.7294 2.0508-6.4629 0.22763-0.16921 0.44525-0.33187 0.71289-0.52343 0.81842-0.58578 1.6675-1.2285 2.4609-1.8359 0.28072-0.15241 0.54322-0.30992 0.84766-0.45508 1.9984-0.95287 2.6343-2.0882 2.8848-5.1484 7.1e-4 -9e-3 -7e-4 -0.0185 0-0.0273 0.33859-2.4762 0.1786-5.3143-0.64844-5.9121-7e-3 -0.0156-0.0123-0.0376-0.0195-0.0527-2.697-5.6309-2.1803-9.5198 2.7305-14.824 1.1072-1.163 2.417-2.4116 4.0352-3.8359 0.45783-0.40299 0.91753-0.83591 1.375-1.2812 5.0842-4.6781 9.707-11.422 9.707-14.34 0-0.0511-0.0122-0.0895-0.0156-0.13671 2e-3 -0.0465 0.0156-0.1022 0.0156-0.14649 0-0.23121-0.11469-0.40652-0.34375-0.53125-0.32205-0.23586-0.92214-0.29498-1.9297-0.19726-7e-3 6.7e-4 -0.0185 9.5e-4 -0.0254 2e-3 -0.9195 0.0635-2.1688 0.26236-3.7012 0.56836-4.9842 0.81109-5.4411 0.54192-6.6191-1.7656-0.67926-1.3305-1.9156-2.7998-2.748-3.2656-0.88647-0.49609-2.6059-2.6046-4.1914-4.877-1.8573-2.7596-3.4414-5.7276-3.4414-6.9277 0-1.04-0.40781-2.1431-0.90625-2.4512-0.063-0.0389-0.14637-0.12964-0.23632-0.23633-0.39607-0.91653-0.84401-1.898-1.3535-2.9023-2.3307-4.594-2.8918-6.4708-2.0606-7.4668 0.15112-0.0466 0.28152-0.1514 0.37891-0.32422 0.0341-0.0236 0.0554-0.0537 0.0918-0.0762 0.50302-0.31089 1.949 1.1255 3.2129 3.1914 0.79702 1.3028 1.7123 2.6503 2.4726 3.6816 0.44696 0.61777 0.84801 1.1457 1.0957 1.3965 0.71787 0.72678 1.3047 2.2033 1.3047 3.2812 0 0.99151 0.57305 2.028 1.3066 2.4356 0.48871 0.84019 1.0528 1.7348 1.6934 2.6191 1.65 2.2778 3.0076 5.0872 3.0156 6.2422 0.0114 1.5559 0.30243 2.7063 0.81445 3.3984l0.16406 1.0254 0.86329-0.3125c0.50341 0.11611 1.0948 4e-3 1.7578-0.35937 1.0362-0.56795 4.0223-1.7961 6.6348-2.7285 2.5404-0.90672 4.615-1.9697 4.7285-2.4102 0.26215-0.1743 0.48694-0.33657 0.62109-0.47071 0.17228-0.17229 0.36973-0.33127 0.56836-0.48632 0.387-0.17328 0.82008-0.3393 1.3125-0.4629 0.36549-0.0917 0.86399-0.34831 1.4102-0.66992 1.2828-0.33909 3.2175-1.8672 4.3008-3.2383 0.83377-0.73765 1.5815-1.4742 2.2168-2.1582 0.37844-0.0828 0.71485-0.49699 0.9375-1.0723 0.40483-0.53165 0.64446-0.96708 0.63867-1.2383-0.0103-0.48056-0.21328-0.99537-0.55274-1.4863-0.0142-0.0425-0.0172-0.0892-0.0332-0.13086-0.29578-0.7708-1.4068-1.6305-2.4688-1.9082-0.52063-0.13615-0.99362-0.44851-1.3418-0.8457-0.0128-0.0158-0.0266-0.0308-0.0391-0.0469-0.0273-0.0325-0.0487-0.0681-0.0742-0.10156-0.29203-0.40939-0.47461-0.87777-0.47461-1.3203 0-0.31254-0.0169-0.52293-0.043-0.70899-5e-3 -0.0333-2e-3 -0.0976-8e-3 -0.12695v-2e-3c-0.0201-0.0989-0.0486-0.17714-0.0859-0.23047-0.0374-0.0534-0.085-0.0836-0.14454-0.0918-0.23979-0.033-0.67613 0.29581-1.4688 0.97656-0.30315 0.26035-0.58933 0.47952-0.875 0.69532-0.95969 0.64597-2.1794 1.2662-3.0996 1.5508-1.0071 0.12719-1.6995-0.34205-1.9824-1.4238-0.0847-0.32389-0.20457-0.59999-0.34179-0.83008-0.0595-0.88265-0.25009-1.0645-0.62305-0.60547-0.17307-0.0674-0.34803-0.0686-0.50977 0.0312-0.52448 0.32416-1.1998-0.35443-1.502-1.5098-0.30213-1.1553-0.8947-2.1016-1.3164-2.1016-2e-3 0-5e-3 -2e-3 -8e-3 -2e-3 -0.21332-0.30373-0.42557-0.57401-0.625-0.77344-0.13766-0.13766-0.24353-0.26769-0.35937-0.40039-0.12011-0.27136-0.23059-0.56408-0.31446-0.88476-0.77817-2.9758 1.3337-3.3436 4.1562-1.1113 3e-3 3e-3 6e-3 5e-3 0.01 8e-3 6e-3 5e-3 0.0116 0.0108 0.0176 0.0156 0.38735 0.30814 0.78907 0.66649 1.1973 1.0723 0.012 0.0119 0.0232 0.0194 0.0352 0.0312 0.0107 0.0106 0.0206 0.0207 0.0312 0.0312 1.7285 1.7285 2.95 2.5485 4.2168 2.7383 0.50431 0.10904 1.0068 0.13998 1.5234 0.0801 1.4608-0.16944 3.1354 0.35873 3.7871 1.1953 0.83578 1.0729 3.1135 1.5 8 1.5 2.9347 0 4.705 0.0771 5.9375 0.39648 2e-3 4.7e-4 4e-3 9.5e-4 6e-3 2e-3 0.92356 0.24671 1.549 0.62371 2.1309 1.2012 0.19499 0.19351 0.38499 0.40955 0.58008 0.6504 1.0024 1.2375 2.4509 2.25 3.2188 2.25 0.78524 0 1.1613 0.61163 0.85937 1.3984-0.0458 0.11923-0.0794 0.23664-0.10351 0.34961-0.24115 1.0638 0.39143 1.78 1.2266 1.8867 0.0249 5e-3 0.0508 6e-3 0.0762 0.01 0.0676 6e-3 0.13549 6e-3 0.20508 4e-3 0.51173 0.0211 1.078-0.13683 1.6074-0.57617 1.0592-0.87908 1.4562-0.12447 1.9707 3.7539 0.3541 2.6693 1.5509 6.7314 2.6602 9.0273 0.25836 0.53474 0.52345 1.1315 0.79297 1.7129 0.75906 1.9481 1.5148 3.6886 2.1875 4.9922 0.52102 1.3459 1.3427 2.4414 1.8379 2.4414 0.38198 0 0.86686-0.51392 1.3691-1.2871 0.17843-0.24908 0.35242-0.55424 0.52539-0.87696 0.0461-0.0867 0.0889-0.18521 0.13477-0.27539 0.13275-0.26512 0.26718-0.52347 0.39258-0.82617 0.93641-2.0825 1.7168-4.6921 1.7168-6.4199 0-1.5579 0.43173-2.6586 1.4824-3.6133l2e-3 -2e-3c0.33458-0.2147 0.80063-0.5559 1.3223-0.95703 1.5029-0.91396 4.2077-3.1006 6.1094-4.9394 0.64824-0.45825 1.1622-0.77879 1.334-0.7832 0.30347-8e-3 0.56387-0.38358 0.68164-0.90821 1.3476-0.98925 2.7996-1.8144 3.918-2.1953 0.7541-0.0752 1.4606-0.19725 1.9922-0.34375 0.86251-0.0301 1.5178 0.16545 2.2227 0.77734 0.61718 0.5358 1.283 1.379 2.1855 2.6367 1.4382 2.0043 2.6151 4.3018 2.7285 5.2852 6e-3 0.0676 0.0215 0.1441 0.0215 0.20703 0 0.0876 0.0142 0.15256 0.0195 0.23242 5e-3 0.0432 5e-3 0.0928 0.0117 0.13281 0.1257 1.1435 0.83868 1.388 1.8711 0.70118 0.14964-0.0294 0.29995-0.0607 0.4707-0.10352 1.1612-0.29145 1.7866-0.28577 2.2402 0.32617 0.21077 0.64558 0.50188 1.4686 0.8164 2.3223 0.044 0.19371 0.0864 0.36581 0.13281 0.58398 0.44817 2.1048 0.7256 5.1 0.61524 6.6562-0.0491 0.69225 0.0922 1.5811 0.35351 2.4902-0.92352-0.48367-0.55879 0.58205 1.457 3.1621v2e-3c5e-3 6e-3 7e-3 0.01 0.0117 0.0156 0.66726 0.93942 1.23 1.9549 1.5938 2.7852 0.21878 0.54707 0.3782 1.0555 0.38282 1.4082 7e-3 0.57048 0.41444 1.3314 0.99023 2.0391 0.94485 1.3782 2.3404 2.7676 3.0488 2.7676 0.14977 0 0.26097-0.0537 0.35351-0.13086 0.0488 0.027 0.20394 0.13086 0.21485 0.13086 0.0278 0 0.0145-0.19732-0.0156-0.46876 0.12325-0.45736-0.0293-1.2349-0.3457-2.1445-3e-3 -0.0136-3e-3 -0.0214-6e-3 -0.0351-0.12677-0.66314-0.61397-1.6469-1.2949-2.7227-0.72418-1.2451-1.6055-2.4832-2.5664-3.4277-1.8457-1.814-3.3353-3.839-3.3105-4.5 0.0147-0.39244 0.17102-0.98306 0.38476-1.6289 0.22959-0.34255 0.41021-0.82952 0.50195-1.3516 0.82261-1.9809 1.9265-3.8908 1.9863-2.9707 0.0115 0.17616 0.0637 0.3437 0.14258 0.49609 0.12342 0.33501 0.44432 0.58768 0.84766 0.69141 0.11073 0.033 0.22494 0.0546 0.34375 0.0586 9e-3 1.6e-4 0.0164 4e-3 0.0254 4e-3 0.60459 0 1.9646 0.99798 3.2363 2.2988 0.17863 0.18755 0.36273 0.36185 0.5332 0.56055l2.4531 2.8594 0.043-0.0332 0.15821 0.17969 1.9941-1.8203 1.1211-0.85547c2.2336-1.703 3.1219-3.312 2.668-5.3242-0.1215-0.71026-0.44517-1.4562-0.9668-2.2695-0.51386-0.86624-1.1997-1.8069-2.082-2.8555-1.722-2.0464-2.4725-3.3874-2.2441-4.5449 0.0199-0.0913 0.0488-0.18161 0.0781-0.27149 0.0174-0.0511 0.0275-0.10373 0.0488-0.15429 6e-3 -0.0165 0.0167-0.0324 0.0234-0.0488 0.33517-0.7449 1.1058-1.4399 2.3242-2.2383 2.548-1.6696 2.726-1.6661 4 0.0762 0.13465 0.18415 0.25809 0.31987 0.38086 0.45703 0.16705 0.1912 0.32316 0.34865 0.44531 0.41406 0.30265 0.21351 0.50781 0.20274 0.50781-0.13867 0-0.0312 0.0296-0.0708 0.041-0.10547 0.0264-0.0429 0.0553-0.12324 0.082-0.17578 0.39403-0.54031 1.7781-1.3381 3.5098-2.0625 0.6137-0.084 1.0934-0.27224 1.2773-0.51562 1.4903-0.53935 2.7284-1.0543 3.8144-1.6113 2.1594-0.85305 4.4744-2.8082 5.7812-4.9727 0.55596-0.7172 1.124-1.4908 1.7441-2.4043 0.39692-0.58474 0.74469-1.1043 1.0488-1.5723 0.27221-0.21008 0.5568-0.67541 0.78125-1.2539 1.3005-2.2178 0.93777-2.6174-0.83008-2.6328-0.51054-4e-3 -0.83767-0.0272-1.0137-0.084-0.31924-0.10742-0.0911-0.33801 0.67383-0.82227 0.17314-0.1096 0.31223-0.2198 0.43555-0.33203 0.58642-0.47957 0.69013-1.0148 0.2539-2.1406-0.13003-0.42077-0.31075-0.90589-0.5625-1.5137-0.4451-1.0746-0.98719-1.9785-1.4551-2.5332-1.1693-2.3136-1.0091-2.7676 0.50586-4.1387 1.0253-0.92785 1.5995-2.1162 1.2754-2.6406-0.26382-0.42685-0.63848-0.53747-1.0566-0.34375-0.31137 0.0548-0.59801 0.22594-0.77343 0.50977-0.0306 0.0495-0.0727 0.0823-0.11328 0.11914-0.62782 0.29682-1.4652 0.0154-2.4824-0.85156-0.27056-0.23281-0.51432-0.45748-0.72656-0.66993-0.0448-0.0448-0.075-0.0831-0.11719-0.12695-0.0509-0.0575-0.1181-0.12083-0.1582-0.17578-0.49503-0.67831-0.0246-1.2938 1.4316-2.5879 0.69547-0.35656 1.4953-0.94794 2.1328-1.6523 0.22535-0.24902 0.43883-0.4571 0.65039-0.65821 1.3994-1.0359 2.259-1.4031 2.5879-1.0566 0.11584 0.15463 0.17177 0.39284 0.1582 0.71485-1.2e-4 3e-3 1.3e-4 5e-3 0 8e-3v2e-3c-5e-3 0.11736-0.044 0.27458-0.0684 0.41406-0.0285 0.1606-0.0456 0.3026-0.0957 0.49414-0.44065 1.6851-0.0885 1.8525 2.9023 1.3672 0.18419-0.0299 0.26613-0.0284 0.42969-0.0527a127.12 127.12 0 0 0 -82.172 -96.666c0.12067 1.1185 0.19333 2.3957 0.17578 3.6543-0.0241 0.0953-0.0442 0.19567-0.0742 0.2793-0.64962 1.811-0.49713 3.2098 0.25 3.8086 0.24397 0.54644 0.72883 0.51685 1.625 0.23242 0.90785-0.28814 2.0433 0.23694 2.9746 1.0469 1.2033 1.1166 2.0564 2.7637 1.4492 3.7461-0.34264 0.5544-0.99829-6e-3 -1.457-1.2461-0.97284-2.6298-3.3042-2.2875-3.4043 0.5-0.0602 1.6761-0.42545 3.2251-0.99218 4.5371-0.33712 0.51336-0.73157 1.0302-1.1856 1.541-1.3565 1.5263-2.234 2.2738-3.1602 2.5-0.52672 0.0572-1.0623 4.7e-4 -1.5938-0.21484-1.5432-0.62518-1.6259-0.82666-0.35937-0.88086 0.0466-2e-3 0.0968-0.0276 0.14453-0.0371 0.87261-0.13375 1.3979-0.48625 1.2617-0.9082 0.35461-0.40999 0.70859-0.92241 1.041-1.5059 0.60183-0.59531 1.0936-1.8273 1.3613-3.1465 0.52115-1.6555 0.69658-3.1961 0.17578-3.8281-0.51846-0.62913-0.77284-3.3768-0.5664-6.1055 0.15366-2.0311 0.0409-3.9344-0.24805-4.9141a127.12 127.12 0 0 0 -7.334 -2.166zm-30.977 10.541c-0.43826 0-0.80331 0.45158-0.9375 1.0664-0.038 0.1287-0.0625 0.2621-0.0625 0.40234 0 0.019 3e-3 0.0342 4e-3 0.0527-2.1e-4 0.013-4e-3 0.024-4e-3 0.0371 0 0.0579 0.0175 0.0965 0.0215 0.15039 4e-3 0.0305 6e-3 0.063 0.0117 0.0918 0.0835 0.67666 0.47658 1.0022 0.96679 0.69922 0.01-6e-3 0.0179-0.0154 0.0274-0.0215 0.14606-0.0177 0.30208-0.0517 0.47265-0.11719 0.825-0.31659 1.5-0.97759 1.5-1.4688 0-0.49115-0.675-0.89257-1.5-0.89257-0.10962 0-0.21527 0.0131-0.31836 0.0352-0.061-0.011-0.11735-0.0352-0.18164-0.0352zm-87.436 41.018c-0.62362 0.0537-1.4145 0.5173-1.9141 1.3516-0.0714 0.11918-0.13718 0.24666-0.19531 0.38086-0.37884 0.8746-0.63472 1.5825-0.79297 2.1973-0.0235 0.0863-0.0362 0.16228-0.0566 0.24609-0.0268 0.1236-0.0631 0.2556-0.0801 0.3711-0.32447 1.6429-0.0209 2.7975 0.94141 3.7598 0.79063 0.79061 1.1588 1.7162 0.81836 2.0566-0.34047 0.34048 0.0836 0.61915 0.94141 0.61915 0.8342 0 1.6258 0.7068 2.0879 1.5371 0.322 0.72296 0.4047 1.5657 0.11133 2.2441-0.0442 0.0485-0.0876 0.098-0.14258 0.13868-0.43113 0.31897-1.3508 1.5926-2.043 2.8301-1.1378 2.0342-1.0418 2.2604 1 2.3652 0.74631 0.0383 1.1384 0.0915 1.2871 0.16406-0.0116 0.0566-0.0534 0.12681-0.0957 0.19727-0.14738 0.0612-0.36721 0.13072-0.68164 0.21289-0.9625 0.25152-1.75 0.83172-1.75 1.2891 0 0.45733 1.9125 0.58739 4.25 0.28906 5.0021-0.63842 4.3447-0.25667 5.1934-3.0176 0.53308-1.7342 0.29357-2.25-1.043-2.25-0.58073 0-0.98831-0.10672-1.1426-0.26758-5e-3 -6e-3 -0.0134-0.01-0.0176-0.0156-7e-3 -9e-3 -8e-3 -0.0184-0.0137-0.0273-0.0562-0.10011-0.0323-0.21574 0.0937-0.3418 0.10409-0.10409 0.0619-0.41463-0.0352-0.79687-0.0349-0.14201-0.0782-0.29456-0.13477-0.46485-0.033-0.0958-0.0603-0.18181-0.0996-0.28515-0.0716-0.19468-0.1804-0.42734-0.27344-0.64649-0.0908-0.20891-0.17326-0.40751-0.2793-0.63086-0.14262-0.30432-0.2992-0.61156-0.4707-0.93945-0.11921-0.22867-0.24022-0.44998-0.36719-0.67969-0.096-0.1717-0.17149-0.3319-0.27344-0.50586-1.5321-2.6144-2.2117-4.7807-1.9453-6.1133 0.77362-1.4308 0.61246-2.1057-0.52344-2.25-0.13549-0.0225-0.28443-0.0352-0.45703-0.0352-0.65509 0-1.0546-0.20035-1.1856-0.57227-4e-3 -0.011-0.0103-0.02-0.0137-0.0312-0.0116-0.0401-0.0137-0.0871-0.0195-0.13086-6e-3 -0.0425-0.0174-0.081-0.0176-0.12695-1.5e-4 -0.0348 0.0106-0.0746 0.0137-0.11133 5e-3 -0.0622 7e-3 -0.12188 0.0215-0.18945 0.0226-0.10595 0.056-0.21916 0.10156-0.33789 0.41014-1.0688-0.0842-1.5438-0.79687-1.4824zm-5.1973 10.127c-0.11603-4e-3 -0.22478 3e-3 -0.32812 0.0176-0.17467 0.0241-0.32452 0.0796-0.45899 0.1543-0.0344 0.0185-0.0718 0.0332-0.10351 0.0547h-2e-3c-3e-3 2e-3 -5e-3 4e-3 -8e-3 6e-3 -0.29525 0.20443-0.4668 0.53654-0.4668 0.96679 0 0.37029-0.11624 0.7377-0.28906 1.0566-0.23905 0.36176-0.60311 0.59961-1.0137 0.59961-0.80222 0-1.3393 1.3432-1.4004 3.5-0.0141 0.49755-8e-3 0.7555-0.0156 1.1308-0.16714 1.6588-0.12594 2.2912 0.63086 2.1953 0.46671-0.0228 1.2479-0.39714 2.541-0.98633 1.577-0.71852 2.6044-2.0515 2.6973-3.5 0.0825-1.2867 0.195-2.8962 0.25-3.5762 0.055-0.67997-0.68789-1.3869-1.6504-1.5723-0.12931-0.0249-0.25447-0.0405-0.37304-0.0449-3e-3 -1.3e-4 -7e-3 -2e-3 -0.01-2e-3zm75.955 21.084c0.12521 0.0242 0.22818 0.0628 0.31055 0.11523 0.01 0.0757-0.0628 0.18136-0.24805 0.32032-0.1597 0.11982-0.30452 0.24183-0.44336 0.36523-0.4196 0.0544-0.64307 0.28636-0.58789 0.60938-0.56994 0.69566-0.83691 1.4346-0.80273 2.1914-1.0472 0.9022-0.31109 1.8245 2.9551 4.0488 1.0416 0.70936 1.9699 1.5791 2.6113 2.3828 0.48109 0.63484 0.74528 1.2122 0.66992 1.6035-0.45247 2.3495-4.8292 2.9945-9.1016 1.3418-3.3598-1.2997-4.1926-1.4044-8.5606 0.72851-1.2084 0.49134-2.2332 0.9822-2.5762 1.2695-0.0164 0.0137-0.0361 0.0218-0.0527 0.0352-0.95652 0.45894-1.7559 0.69671-2.3477 0.70898-0.54658-0.0606-0.97839-0.29073-1.1055-0.69336-0.0178-0.0822-0.043-0.15904-0.043-0.25585 0-0.275 0.1186-0.52579 0.31055-0.70704 0.096-0.0906 0.20935-0.16406 0.33594-0.21484 0.12659-0.0508 0.26649-0.0781 0.41211-0.0781 5e-3 0 7e-3 -2e-3 0.0117-2e-3 0.1176-2e-3 0.21115-0.0271 0.28906-0.0645 0.32736-0.13963 0.40076-0.51084 0.125-0.95703-1.0306-1.6676 0.40112-6.3006 2.9258-9.4668 0.55309-0.69363 0.99713-1.1967 1.3887-1.5625 0.57958-0.32032 1.3715-0.42108 2.1621-0.36523 0.0865 0.0602 0.17016 0.11346 0.26172 0.18945 0.70774 0.58737 1.5871 0.81954 2.0938 0.58789 0.23464 0.1933 0.38989 0.41538 0.44336 0.66016-0.022 0.0703-0.029 0.122-0.0566 0.19921-1.0039 2.8013 1.2117 3.1344 2.2734 0.3418 0.26123-0.68708 0.58275-1.3101 0.89257-1.7734 0.725-0.39148 1.5767-0.75289 2.4414-1.041 0.53073-0.0995 1.107-0.21219 1.6894-0.3457 0.6231-0.14284 1.0489-0.18839 1.3223-0.17188zm21.273 0.49219c0.14592-8e-3 0.27944-5.9e-4 0.41601 2e-3 0.0261 6e-3 0.0568 5e-3 0.082 0.0117 2.5868 0.67647 2.3946 1.7156-0.68945 3.7363l-2.5938 1.6992 1.9766 2.166c0.91969 1.0078 1.8713 2.8237 2.3301 4.3594 2e-3 7e-3 4e-3 0.0146 6e-3 0.0215 0.0445 0.20897 0.0745 0.40879 0.0898 0.59375 0.0727 0.87859 0.26655 1.6234 0.49805 2.1152 0.28891 1.3989 0.60653 2.8722 0.86524 3.9316 0.12111 0.49599 0.19652 0.94017 0.22851 1.3379-0.23313 1.0913-0.60529 2.0602-1.0801 2.4961-0.1237 0.0777-0.24458 0.15409-0.35351 0.21875-0.53956 0.20613-0.97622 0.35714-1.3594 0.43555-0.67468-0.0353-1.5086-0.46692-3.2617-1.418-0.32264-0.17503-0.59742-0.32835-0.85351-0.47656-1.0351-0.81093-1.5588-1.393-1.6875-2.0508 0.0284-0.56651 0.28009-1.2934 0.70703-2.3867 0.21839-0.55923 0.24731-1.2529 0.10547-2.0762-0.14749-1.1303-0.70884-2.504-1.8184-4.6426-0.17976-0.34648-0.3267-0.64345-0.47852-0.94727-0.96949-2.1208-1.3048-3.7738-0.88086-4.5312 0.92279-1.6489 3.4918-3.4151 5.6777-4.207 0.73508-0.2151 1.4457-0.35386 2.0742-0.38867zm14.123 0.67383c0.0893 0.011 0.17328 0.0385 0.25 0.0859 0.87832 0.54284 0.6867 3.6482-0.32617 5.2871-0.4776 0.77278-1.0585 1.1443-1.6172 1.1621-0.26397-0.0413-0.51523-0.11685-0.74804-0.21679-0.36691-0.23466-0.69565-0.64012-0.92969-1.25-0.57612-1.5014 2.0314-5.2329 3.3711-5.0684zm-84.518 13.023c-0.0649 0.0126-0.13243 0.0395-0.20118 0.082-0.55 0.33992-1 1.266-1 2.0586s0.45 1.4414 1 1.4414 1-0.92614 1-2.0586c0-0.9909-0.34423-1.6116-0.79882-1.5234zm8.0488 6.5977c-1.4956 0.0131-1.5319 0.15595-0.25 0.98438 1.8872 1.2196 2 1.2196 2 0 0-0.55-0.7875-0.99238-1.75-0.98438zm176.55 25.049c-0.0805-0.0156-0.20923 0.11381-0.3711 0.32226-0.13069-0.0136-0.27561 0.0181-0.42969 0.11329-0.55 0.33992-1 1.2922-1 2.1172 0 0.16864 0.0298 0.30727 0.0645 0.4375-0.0189 0.0886-0.0477 0.18845-0.0488 0.25391-7e-3 0.38477 0.33025 0.48248 0.77539 0.28711 0.0675-0.0199 0.13732-0.0514 0.20898-0.0957 0.10946-0.0677 0.2123-0.1685 0.31055-0.28516 0.3971-0.44436 0.68945-1.1717 0.68945-1.832 0-0.0542-0.0177-0.0902-0.0215-0.14063 1.5e-4 -0.0168 6e-3 -0.034 6e-3 -0.0508-7e-3 -0.72864-0.0435-1.0998-0.18359-1.127zm-19.301 8.9356c-0.825 0-1.5 0.44999-1.5 1 0 0.33 0.25826 0.61056 0.63086 0.79296 0.18292 0.12793 0.45783 0.20703 0.81055 0.20704 0.0104 0 0.019-4e-3 0.0293-4e-3 0.0103 1.4e-4 0.0189 4e-3 0.0293 4e-3 0.72187 0 1.3283-0.34424 1.4688-0.79883 0.0208-0.0649 0.0312-0.13243 0.0312-0.20117 0-0.078-0.0173-0.15357-0.043-0.22657-0.0994-0.43863-0.45629-0.77344-0.89843-0.77343-0.0726 0-0.15411 0.0262-0.23242 0.043-0.10822-0.0167-0.21064-0.043-0.32618-0.043zm19.404 2.3262c-0.1406-0.0122-0.30331 0.11431-0.47851 0.36133-0.0222 0.0272-0.0445 0.0609-0.0664 0.0918-0.0174 0.0274-0.0331 0.0501-0.0508 0.0801-0.0624 0.0968-0.11865 0.22268-0.17774 0.3457-0.0869 0.18394-0.17611 0.38943-0.26757 0.63672-1e-3 4e-3 -3e-3 8e-3 -4e-3 0.0117-2e-3 7e-3 -4e-3 0.0145-6e-3 0.0215-0.0793 0.22118-0.14338 0.48916-0.19727 0.77929-0.24811 1.1156-0.33578 2.4219-0.0898 3.4453 0.0399 0.40101 0.085 0.80166 0.16016 1.1641l0.66992 3.2363 0.77344-4.3906c0.11441-0.64981 0.19487-1.2556 0.25-1.8242 0.21907-1.3276 0.22455-2.6554-0.0254-3.2852-0.0374-0.0942-0.0776-0.15627-0.11718-0.22657-0.0987-0.27071-0.22247-0.43421-0.37305-0.44726zm3.459 8.0195c-0.15157-0.0229-0.25516 0.34222-0.28516 1.0703-0.0163 0.39644 0.0172 0.69661 0.0703 0.9375a127.12 127.12 0 0 0 0.44141 -1.7285c-0.0822-0.15888-0.16071-0.26933-0.22656-0.2793zm-1.543 4.1894c-0.41026-2e-3 -0.36033 0.50832-0.0469 1.707 0.0673 0.25739 0.14144 0.46004 0.2168 0.64453a127.12 127.12 0 0 0 0.53906 -2.1133c-0.30084-0.13955-0.5526-0.23759-0.70898-0.23828zm-69.527 2.7891c-0.26897 0.0128-0.29297 0.76958-0.29297 2.4531 0 2.3978 0.3617 3.0208 1.5 2.584 1.8467-0.70865 1.842-1.326-0.0312-3.8027-0.60844-0.80442-0.96658-1.2443-1.1758-1.2344zm60.693 4.6621c-0.64425-0.0349-1.6289 0.74773-3.6699 2.6172-0.51134 0.46837-1.0774 0.9518-1.6641 1.4219-1.0906 0.87389-2.2357 1.6876-3.2344 2.3164-0.0757 0.0477-0.1645 0.11295-0.23828 0.15821-0.52262 0.32007-0.99518 0.57928-1.3809 0.75-0.2312 0.10234-0.4527 0.22271-0.66797 0.35156-0.11619 0.0681-0.2243 0.1387-0.33007 0.21094-0.0987 0.0676-0.19213 0.1373-0.28516 0.20898-0.0807 0.0637-0.16871 0.12518-0.24219 0.19141-0.76448 0.65272-1.2734 1.4182-1.2734 2.0312 0 0.24821 0.0521 0.51626 0.13477 0.79296 0.14766 1.2742 1.0537 2.5672 2.5918 3.5645 0.86321 0.71913 1.7569 1.1944 2.4199 1.125 0.29172 0.0926 0.58817 0.1819 0.90234 0.25586 1.8981 0.44686 3.6762 0.85816 3.9512 0.91406 1.0757 0.21854 4.6029-8.9225 3.8887-10.078-0.0386-0.0625-0.0708-0.13376-0.10157-0.20507 0.0472-0.71116 0.0548-1.4314 0.0371-2.1445 0.0497-0.13459 0.0887-0.2757 0.15625-0.39648 0.47483-0.84856 0.45224-2.261-0.0488-3.1973-0.29553-0.55221-0.55876-0.86776-0.94531-0.88868zm-35.271 2.0137c-0.63828 0 0.17743 1.2649 1.8125 2.8105 1.6654 1.5743 2.9311 2.9852 3.9785 4.4629 0.73067 1.5225 1.4588 2.8125 2.2441 3.9609 0.0586 0.12972 0.11994 0.25209 0.17774 0.38477 0.50761 1.1653 2.1426 3.0778 3.6328 4.25 3.159 2.4849 4.4394 2.6904 4.4394 0.71289 0-0.15387 0.0193-0.34267 0.0391-0.53321 0.0566-0.29971 0.11049-0.61775 0.16601-0.99609 4e-3 -0.028 4e-3 -0.0485 8e-3 -0.0762 0.10778-0.50083 0.24448-1.005 0.39844-1.4062 0.43378-1.1304 0.17511-1.4258-0.88867-1.0176-0.35939 0.13792-0.71014 0.12011-1.0527-0.041-0.12811-0.0655-0.25938-0.15617-0.39063-0.24804-0.45795-0.37607-0.89606-1.0262-1.3066-1.9492-0.1661-0.3734-0.50098-0.84089-0.94141-1.3613-0.021-0.12984-0.0312-0.25742-0.0312-0.38086 0-0.86429-0.38651-1.5723-0.85742-1.5723-0.3131 0-1.5317-0.72924-3.0332-1.7617-3.2264-2.6789-7.0532-5.2383-8.3945-5.2383zm17.693 19.246c-0.91178-0.0132-1.4113 0.0848-1.1524 0.34375 0.0588 0.0588 0.16405 0.12493 0.28907 0.19336 0.32703 0.29919 1.5298 0.72733 3.6543 1.2305 2.6082 0.61767 4.6599 0.88526 6.0137 0.82812 1.0034 0.0479 1.523-0.0575 1.4941-0.33203 0.19132-0.13264 0.29297-0.3019 0.29297-0.50976 0-0.55-0.5625-1.0209-1.25-1.0469s-3.4548-0.24203-6.1484-0.48047c-0.41074-0.0363-0.7337-0.0523-1.084-0.0742-0.799-0.0831-1.545-0.14417-2.1094-0.15234zm13.508 2.877c-0.3474-0.0143-0.74259 0.0489-1.1035 0.19336-0.79773 0.31922-0.56143 0.55747 0.60352 0.60547 1.0542 0.0434 1.6448-0.1931 1.3125-0.52539-0.16614-0.16612-0.4651-0.25914-0.8125-0.27344z"
       fill="url(#c)"
       id="path16" />
  </g>
  <path
     id="path33"
     d="m 402.25765,696.69089 64.82952,30.66256 v 126.1556 l -64.82952,-30.66257 z m 98.12038,-36.79527 -95.00804,33.77972 64.24868,30.85617 94.71377,-33.97333 z m -1.75219,57.72487 v 77.19175 l 67.45783,26.28203 v -127.7142 z"
     inkscape:connector-curvature="0"
     style="fill:url(#a);stroke-width:0.09680673" />
</svg>
